<?xml version="1.0" encoding="UTF-8" standalone="no"?>
<svg
   xmlns:dc="http://purl.org/dc/elements/1.1/"
   xmlns:cc="http://creativecommons.org/ns#"
   xmlns:rdf="http://www.w3.org/1999/02/22-rdf-syntax-ns#"
   xmlns:svg="http://www.w3.org/2000/svg"
   xmlns="http://www.w3.org/2000/svg"
   xmlns:sodipodi="http://sodipodi.sourceforge.net/DTD/sodipodi-0.dtd"
   xmlns:inkscape="http://www.inkscape.org/namespaces/inkscape"
   width="395.762"
   height="115.693"
   viewBox="0 0 395.762 115.693"
   version="1.1"
   id="svg13"
   sodipodi:docname="logo-white.svg"
   inkscape:version="0.92.3 (2405546, 2018-03-11)">
  <metadata
     id="metadata19">
    <rdf:RDF>
      <cc:Work
         rdf:about="">
        <dc:format>image/svg+xml</dc:format>
        <dc:type
           rdf:resource="http://purl.org/dc/dcmitype/StillImage" />
      </cc:Work>
    </rdf:RDF>
  </metadata>
  <defs
     id="defs17" />
  <sodipodi:namedview
     pagecolor="#ffffff"
     bordercolor="#666666"
     borderopacity="1"
     objecttolerance="10"
     gridtolerance="10"
     guidetolerance="10"
     inkscape:pageopacity="0"
     inkscape:pageshadow="2"
     inkscape:window-width="1853"
     inkscape:window-height="1025"
     id="namedview15"
     showgrid="false"
     inkscape:zoom="1.1522077"
     inkscape:cx="197.881"
     inkscape:cy="57.8465"
     inkscape:window-x="67"
     inkscape:window-y="27"
     inkscape:window-maximized="1"
     inkscape:current-layer="svg13" />
  <g
     id="logo"
     transform="translate(-139 -88)"
     style="fill:#ffffff">
    <path
       id="Path_3"
       data-name="Path 3"
       d="M63.414,150.5l6.444,19.3,44.241-57.85L69.858,54.1,63.1,72.984l29.385,38.959Z"
       transform="translate(85.98 33.9)"
       fill="#ff564f"
       opacity="0.2"
       style="fill:#ffffff" />
    <path
       id="Path_4"
       data-name="Path 4"
       d="M169.543,169.793H148.548L104.3,111.943,148.548,54.1h20.994l-43.628,57.843Z"
       transform="translate(74.151 33.9)"
       fill="#f08179"
       style="fill:#ffffff" />
    <path
       id="Path_5"
       data-name="Path 5"
       d="M252.237,83.54c-15.227,0-26.377,5.047-33.726,8.291l5.347,13.851a58.28,58.28,0,0,1,28.109-6.808c14.593,0,24.045,7.029,24.045,22.5-4.99-1.283-9.937-2.966-25.564-2.966-19.64,0-39.358,7.614-39.358,29.82,0,18.449,13.146,29.713,35.829,29.713,16.995,0,24.124-7.9,28.936-12.162V177.9h16.189V118.328C292.073,92.373,272.84,83.54,252.237,83.54Zm23.8,60.452c0,9.938-12.019,19.918-27.489,19.918-13.759,0-20.673-7.977-20.673-16.154,0-8.44,8.041-15.869,23.725-15.869,17.473,0,24.445,3.686,24.445,3.686Z"
       transform="translate(43.489 25.447)"
       fill="#ff564f"
       style="fill:#ffffff" />
    <path
       id="Path_6"
       data-name="Path 6"
       d="M531.689,83.54c-15.234,0-26.377,5.047-33.726,8.291l5.368,13.851a58.317,58.317,0,0,1,28.116-6.808c14.585,0,24.045,7.029,24.045,22.5-4.99-1.283-9.937-2.966-25.571-2.966-19.633,0-39.351,7.614-39.351,29.82,0,18.449,13.146,29.713,35.822,29.713,17,0,24.131-7.9,28.936-12.162V177.9h16.189V118.328C571.517,92.373,552.284,83.54,531.689,83.54Zm23.8,60.452c0,9.938-12.026,19.918-27.5,19.918-13.759,0-20.673-7.977-20.673-16.154,0-8.44,8.041-15.869,23.724-15.869,17.473,0,24.445,3.686,24.445,3.686Z"
       transform="translate(-36.755 25.447)"
       fill="#ff564f"
       style="fill:#ffffff" />
    <path
       id="Path_7"
       data-name="Path 7"
       d="M345.9,85.48h18.171l28.636,69.891L421.351,85.48h17.843L399.124,178.5H386.085Z"
       transform="translate(4.782 24.89)"
       fill="#ff564f"
       style="fill:#ffffff" />
    <rect
       id="Rectangle_1"
       data-name="Rectangle 1"
       width="16.824"
       height="115.693"
       transform="translate(139 88)"
       fill="#ff564f"
       style="fill:#ffffff" />
    <path
       id="Path_8"
       data-name="Path 8"
       d="M169.563,169.793H148.568l-44.248-57.85L148.568,54.1h20.994l-43.628,57.843Z"
       transform="translate(74.145 33.9)"
       fill="#ff564f"
       style="fill:#ffffff" />
    <path
       id="Path_9"
       data-name="Path 9"
       d="M169.563,169.793H148.568l-44.248-57.85L148.568,54.1h20.994l-43.628,57.843Z"
       transform="translate(74.145 33.9)"
       fill="#ff564f"
       style="fill:#ffffff" />
    <path
       id="Path_10"
       data-name="Path 10"
       d="M169.563,169.793H148.568l-44.248-57.85L148.568,54.1h20.994l-43.628,57.843Z"
       transform="translate(74.145 33.9)"
       fill="#ff564f"
       style="fill:#ffffff" />
    <path
       id="Path_12"
       data-name="Path 12"
       d="M169.563,169.793H148.568l-44.248-57.85L148.568,54.1h20.994l-43.628,57.843Z"
       transform="translate(74.145 33.9)"
       fill="#ff564f"
       style="fill:#ffffff" />
  </g>
</svg>
